<?xml version="1.0" standalone="no"?>
<!DOCTYPE svg PUBLIC "-//W3C//DTD SVG 20010904//EN"
 "http://www.w3.org/TR/2001/REC-SVG-20010904/DTD/svg10.dtd">
<svg version="1.0" xmlns="http://www.w3.org/2000/svg"
 width="242.000000pt" height="242.000000pt" viewBox="0 0 242.000000 242.000000"
 preserveAspectRatio="xMidYMid meet">
<metadata>
Created by potrace 1.11, written by Peter Selinger 2001-2013
</metadata>
<g transform="translate(0.000000,242.000000) scale(0.100000,-0.100000)"
fill="#000000" stroke="none">
<path d="M1130 2145 c-8 -2 -58 -9 -110 -16 -52 -7 -89 -14 -83 -16 6 -2 61 3
122 11 62 9 158 16 215 16 l104 0 101 -51 c194 -97 532 -314 630 -405 47 -43
62 -65 69 -97 6 -26 10 -33 11 -19 2 43 -30 91 -97 145 -127 103 -425 292
-607 386 l-90 46 -125 2 c-69 1 -132 0 -140 -2z"/>
<path d="M825 2100 c-34 -6 -36 -7 -10 -8 17 0 48 3 70 7 33 7 35 9 10 8 -16
0 -48 -3 -70 -7z"/>
<path d="M660 2069 c-160 -36 -220 -59 -259 -96 l-36 -36 37 31 c40 33 112 58
278 96 58 13 96 24 85 24 -11 0 -58 -8 -105 -19z"/>
<path d="M1220 2077 c-75 -26 -27 -93 86 -118 62 -14 127 -1 138 28 11 28 -42
70 -109 88 -69 18 -69 18 -115 2z"/>
<path d="M689 1951 c-22 -18 -23 -19 -5 -46 25 -39 90 -65 161 -65 61 0 105
18 105 44 0 19 -51 62 -89 75 -55 18 -145 14 -172 -8z"/>
<path d="M336 1844 c-4 -20 -5 -38 -3 -40 3 -3 8 11 11 32 4 20 5 38 3 40 -3
3 -8 -11 -11 -32z"/>
<path d="M322 1770 c0 -14 2 -19 5 -12 2 6 2 18 0 25 -3 6 -5 1 -5 -13z"/>
<path d="M1633 1775 c-86 -37 20 -125 149 -125 61 0 88 14 88 45 0 31 -39 61
-103 80 -62 18 -92 18 -134 0z"/>
<path d="M312 1715 c0 -16 2 -22 5 -12 2 9 2 23 0 30 -3 6 -5 -1 -5 -18z"/>
<path d="M1157 1659 c-88 -15 -85 -72 5 -114 67 -31 155 -34 189 -6 67 54 -73
141 -194 120z"/>
<path d="M301 1644 c0 -11 3 -14 6 -6 3 7 2 16 -1 19 -3 4 -6 -2 -5 -13z"/>
<path d="M447 1632 c-41 -45 -46 -102 -16 -172 34 -79 90 -102 128 -54 28 36
36 85 21 142 -21 84 -92 130 -133 84z"/>
<path d="M292 1520 c0 -19 2 -27 5 -17 2 9 2 25 0 35 -3 9 -5 1 -5 -18z"/>
<path d="M2161 1464 c0 -11 3 -14 6 -6 3 7 2 16 -1 19 -3 4 -6 -2 -5 -13z"/>
<path d="M283 1430 c0 -25 2 -35 4 -22 2 12 2 32 0 45 -2 12 -4 2 -4 -23z"/>
<path d="M273 1330 c0 -30 2 -43 4 -27 2 15 2 39 0 55 -2 15 -4 2 -4 -28z"/>
<path d="M1850 1363 c-26 -9 -81 -66 -99 -103 -27 -53 -33 -89 -21 -126 39
-117 211 -31 244 122 17 78 -48 134 -124 107z"/>
<path d="M263 1210 c0 -36 2 -50 4 -32 2 17 2 47 0 65 -2 17 -4 3 -4 -33z"/>
<path d="M575 1190 c-44 -48 -24 -174 36 -225 38 -31 63 -32 94 0 47 46 28
178 -33 225 -32 25 -74 26 -97 0z"/>
<path d="M252 995 c0 -16 2 -22 5 -12 2 9 2 23 0 30 -3 6 -5 -1 -5 -18z"/>
<path d="M261 919 c-1 -9 7 -25 17 -36 9 -10 14 -14 10 -8 -4 6 -12 22 -17 36
-6 15 -10 18 -10 8z"/>
<path d="M331 809 c62 -79 217 -244 350 -374 94 -92 77 -72 -57 65 -104 107
-218 230 -253 273 -66 80 -97 108 -40 36z"/>
<path d="M1946 775 c-9 -26 -7 -32 5 -12 6 10 9 21 6 23 -2 3 -7 -2 -11 -11z"/>
<path d="M721 753 c-16 -13 -25 -33 -28 -66 -15 -126 104 -240 166 -161 71 90
-54 295 -138 227z"/>
<path d="M1308 703 c-77 -70 -103 -179 -53 -228 97 -98 288 142 197 248 -10
11 -30 17 -59 17 -36 0 -50 -6 -85 -37z"/>
<path d="M1530 400 c-9 -6 -10 -10 -3 -10 6 0 15 5 18 10 8 12 4 12 -15 0z"/>
<path d="M824 302 c14 -24 108 -92 124 -91 11 0 8 4 -8 10 -14 6 -47 29 -75
52 -27 23 -45 36 -41 29z"/>
<path d="M1240 290 c-8 -5 -10 -10 -5 -10 6 0 17 5 25 10 8 5 11 10 5 10 -5 0
-17 -5 -25 -10z"/>
</g>
</svg>
